<svg width="1024" height="1024" viewBox="0 0 1024 1024" fill="none" xmlns="http://www.w3.org/2000/svg">
<path d="M492.267 53.3288C499.045 35.01 524.955 35.01 531.733 53.3288L646.929 364.64C649.06 370.399 653.601 374.94 659.36 377.071L970.671 492.267C988.99 499.045 988.99 524.955 970.671 531.733L659.36 646.929C653.601 649.06 649.06 653.601 646.929 659.36L531.733 970.671C524.955 988.99 499.045 988.99 492.267 970.671L377.071 659.36C374.94 653.601 370.399 649.06 364.64 646.929L53.3288 531.733C35.01 524.955 35.01 499.045 53.3288 492.267L364.64 377.071C370.399 374.94 374.94 370.399 377.071 364.64L492.267 53.3288Z" fill="#F53002"/>
<g clip-path="url(#clip0_1_59)">
<path d="M597.479 420.822H517.699V506.301H603.178V426.521C603.178 423.375 600.625 420.822 597.479 420.822Z" fill="white"/>
<path d="M426.521 420.822C423.375 420.822 420.822 423.375 420.822 426.521V506.301H506.301V420.822H426.521Z" fill="white"/>
<path d="M420.822 517.699V597.479C420.822 600.625 423.375 603.178 426.521 603.178H506.301V517.699H420.822Z" fill="white"/>
<path d="M517.699 517.699V603.178H597.479C600.625 603.178 603.178 600.625 603.178 597.479V517.699H517.699Z" fill="white"/>
</g>
<defs>
<clipPath id="clip0_1_59">
<rect width="182.356" height="182.356" fill="white" transform="translate(420.822 420.822)"/>
</clipPath>
</defs>
</svg>
